PathFileType	4	(X/Y/Z)	pose_F01_0-79.trc
DataRate	CameraRate	NumFrames	NumMarkers	Units	OrigDataRate	OrigDataStartFrame	OrigNumFrames
30	30	7	21	m	30	49	79
Frame#	Time	CHip			RHip			RKnee			RAnkle			RBigToe			RSmallToe			RHeel			LHip			LKnee			LAnkle			LBigToe			LSmallToe			LHeel			Neck			Nose			RShoulder			RElbow			RWrist			LShoulder			LElbow			LWrist			
		X1	Y1	Z1	X2	Y2	Z2	X3	Y3	Z3	X4	Y4	Z4	X5	Y5	Z5	X6	Y6	Z6	X7	Y7	Z7	X8	Y8	Z8	X9	Y9	Z9	X10	Y10	Z10	X11	Y11	Z11	X12	Y12	Z12	X13	Y13	Z13	X14	Y14	Z14	X15	Y15	Z15	X16	Y16	Z16	X17	Y17	Z17	X18	Y18	Z18	X19	Y19	Z19	X20	Y20	Z20	X21	Y21	Z21	
49	1.6333333333333333	-0.27474326850667596	1.8631604586097108	-0.43394851299116594	-0.28684307436217077	1.8600612215156729	-0.3657436949113479	-0.26394673670867	1.7114729035629381	-0.35200893281942036	-0.2974338824577045	1.578647318596843	-0.2590117775128522	-0.2730518904647274	1.5403480364663154	-0.28197482454134565	-0.5375150418828976	1.5142066539151844	-0.9377699693170453	-0.3092722643234891	1.567634966062795	-0.2537736116726802	-0.269151855180636	1.8662769105042112	-0.4936646955321822	-0.24736077329295292	1.725301845492161	-0.5441284815678851	-0.2656617081017401	1.5937403941108976	-0.556329419006862	-0.2356183885712832	1.5678424665048876	-0.615830783225715	-0.2410375772343764	1.5785896668047599	-0.6288179148594499	-0.2791872342738027	1.5862331647298087	-0.5374234421664289	-0.2773004981380314	2.026467441436285	-0.4365237160896717	-0.24717373791036099	2.0845653712104877	-0.465426142501334	-0.28823368253569254	2.0245527835484216	-0.3531626375775772	-0.26959193270406956	2.0171313661950556	-0.28639270887928103	-0.26950848593165666	2.0913827461036445	-0.3634820454016702	-0.2602973053110039	2.0286870293656256	-0.5156094513494138	-0.21282981136740137	2.013271704366037	-0.5972770939727677	-0.23654174991252938	2.0753793967955123	-0.5648838130218133
50	1.6666666666666667	-0.2830352535698186	1.8716486712881073	-0.42142351943852835	-0.2891634578444066	1.8675012035048173	-0.3595250755569485	-0.2694285380432225	1.7149461735532738	-0.34614594355602324	-0.2973910592478594	1.5802974322224184	-0.2594687639960537	-0.2752213194751913	1.5420888847471528	-0.2796427029710495	-0.5375676481905906	1.5151706102678477	-0.9374215654272592	-0.309499948637849	1.571407301451248	-0.25410241826559765	-0.2709263529886057	1.873911982725349	-0.48397444760516695	-0.2506360950542195	1.7296159030039215	-0.5454165947563653	-0.26660942064513954	1.5934382803454163	-0.5594803323144996	-0.2356895026861427	1.567778485160642	-0.6160268630349275	-0.2420996311450414	1.5789529437576306	-0.6321363305709141	-0.2791469157869358	1.5858525241252073	-0.5375282366760308	-0.2780933427003313	2.031093125716574	-0.4321727114934571	-0.2518717546495949	2.0846085449879803	-0.45577099006816085	-0.2870814762158971	2.0291984979607456	-0.3510355578818808	-0.2653049189236838	2.0105409640654246	-0.2833092596224341	-0.266462271488624	2.0878894269698005	-0.3551472970164388	-0.26417083358288684	2.0349930278432846	-0.5127236800405456	-0.22247975244969367	2.0070457706686335	-0.5910884270174146	-0.2336511324594408	2.075346369664074	-0.5639452068290427
51	1.7	-0.2829526771603307	1.8742947719826344	-0.4218817370482243	-0.28906082987791804	1.8702057066470061	-0.3599271364070852	-0.27295328762717486	1.7192157124180314	-0.34261814602105617	-0.2975208651197269	1.5786681229427058	-0.25889666103293163	-0.2733140000770384	1.541883604857043	-0.28171163278386036	-0.5374100551824627	1.514699269053326	-0.9378826939986152	-0.3114265001303665	1.5696959475429675	-0.25153405373829685	-0.26897484596759585	1.8765484220980955	-0.48646931255672526	-0.2527000215873332	1.7331101074696746	-0.543651414521028	-0.2652016382605325	1.5972021485673555	-0.5571584269510593	-0.2378894375984247	1.5683572618659114	-0.6138543689018581	-0.24206912364513036	1.5789477876834759	-0.6321425761197392	-0.2764212200145734	1.5878666189989066	-0.5361680152875009	-0.2788852316026159	2.034739916882603	-0.42789855524239406	-0.25468402189116657	2.0859056344213465	-0.4490133900604575	-0.2924861595776936	2.0314572751383686	-0.3452382070876736	-0.2674781851633916	2.008167352065237	-0.2817703819151102	-0.2634160570455914	2.084396107835956	-0.3468125486312074	-0.26325542597869517	2.038743005416554	-0.510382808122615	-0.223520216449211	2.0097802023262297	-0.595069705423716	-0.23652641430174287	2.0778665745101215	-0.5660030314170542
52	1.7333333333333334	-0.2809799459163015	1.8770117147256302	-0.42435157805153906	-0.28906002979133427	1.8742363392476709	-0.36061994543866627	-0.2717905097391494	1.7227836709112554	-0.3399662043839921	-0.29734195340487884	1.5772490582547303	-0.2589887729910935	-0.2716851980702363	1.5395115460872368	-0.27866117144952174	-0.5355260689585454	1.5137221085914323	-0.9411974256417868	-0.3116143288756708	1.5674597753289587	-0.2514342357819657	-0.2689402530542223	1.880444048010692	-0.4870411194156294	-0.25191444420475834	1.7350152290906893	-0.5445464609646843	-0.2649163380986429	1.5953171344037218	-0.5573925912138156	-0.23857932529005163	1.5667249818009157	-0.6173921922914997	-0.24268536682897612	1.5771357087914037	-0.6356824924476011	-0.2759607720020091	1.5851429951314246	-0.5363893575888962	-0.2788524047099057	2.0363899234129392	-0.4283657100416476	-0.2547032744148603	2.0888199144914816	-0.44918841389673764	-0.2906451582916981	2.034162540804387	-0.3477166110540994	-0.2693452580360167	2.019447931412564	-0.2761003610763074	-0.26415596514448686	2.0856387973464017	-0.3455223111054541	-0.2631860045285334	2.0402387605551002	-0.5108008930339263	-0.2234651883976866	2.0174390151544515	-0.5968457479411363	-0.2354850325348149	2.081874635968399	-0.5639532766848647
53	1.7666666666666666	-0.2779385574179891	1.8770736444162435	-0.4234296073390056	-0.2878762753821113	1.8741216770659583	-0.35739929937444564	-0.2743421864254959	1.7266951830287176	-0.3375101154373297	-0.2975599699533928	1.578918378284652	-0.2588148095081423	-0.275171572123935	1.5419263147389715	-0.2796661534436502	-0.5394744451824312	1.517358805422716	-0.9349939872265713	-0.3103069722897746	1.5703343433923724	-0.24827104965251992	-0.2678448463032117	1.8804320311147706	-0.4840358042753061	-0.2547693912864811	1.7352309705434812	-0.5373271672023174	-0.26848702666423796	1.5953915465859696	-0.5576179271953432	-0.23757833551033514	1.5667462189968724	-0.6137810940959223	-0.24180716245990294	1.5777264225018686	-0.6320951393240768	-0.2770322028121442	1.5854334475738767	-0.5367736250683345	-0.2787828060601011	2.0374520527477356	-0.4283288490572871	-0.2566025347094617	2.0886308063899945	-0.44710726604069445	-0.29047818145961707	2.0353087485523718	-0.34787140391178434	-0.2709101852461725	2.0272909259698055	-0.27570719661008025	-0.26489587324338226	2.0868814868568473	-0.3442320735797008	-0.2650134286144446	2.0400958750088827	-0.5080230306563301	-0.22319937112274965	2.0212221293493764	-0.5966565445268591	-0.23654153934953645	2.082883219285061	-0.5586099110746724
54	1.8	-0.2797142007199932	1.8781225896887028	-0.42134443674303834	-0.2866508386656776	1.873888820371248	-0.3539652864746717	-0.27284137671736397	1.7221834748891849	-0.33391776423098346	-0.2973031777148434	1.5772543011301101	-0.258992090378072	-0.27521183582462194	1.5420334315137139	-0.27964888117928755	-0.5424906774110453	1.5159981051345552	-0.9331159669336677	-0.3431175358759322	1.566518263806732	-0.3345288897668654	-0.26731313704500714	1.8828617356838784	-0.4841170188699942	-0.2548689284547763	1.7388507883973998	-0.5376088324107344	-0.26833515291766347	1.594171698650226	-0.5579222784678413	-0.2383859871432432	1.565634040074812	-0.6172596297454045	-0.24251230725079945	1.5759284291849194	-0.6356185535608276	-0.27810363362227924	1.585723900016329	-0.5371578925477727	-0.27776431016415953	2.0373910244867317	-0.4252861699948703	-0.2574188766750378	2.0909147090926408	-0.4425817188149575	-0.2905797610430321	2.0368327749402906	-0.34834946208767975	-0.26900520761762253	2.031766082334776	-0.2781653622745064	-0.2656357813422777	2.088124176367293	-0.3429418360539475	-0.2640269419043013	2.0412696644911477	-0.5055641999557838	-0.2213350050649395	2.0262275659755864	-0.5917002415808487	-0.23628229548960317	2.0917780258952776	-0.5513688446979526
55	1.8333333333333333	-0.2749223761978843	1.8771034661736978	-0.4222862706690071	-0.28663605073458426	1.8751573774243995	-0.3541821055854211	-0.2717030785739591	1.72561035405187	-0.33083422154085174	-0.2976333641773753	1.5776469973881055	-0.2561663231267254	-0.2752520995253089	1.5421405482884563	-0.27963160891492495	-0.5404965057769638	1.5153928825801233	-0.9366213060078524	-0.37592809946208977	1.5627021842210915	-0.42078672988121085	-0.2654820197183205	1.881517450026311	-0.48597421711112876	-0.2577361721705398	1.7399405561023211	-0.5302238567583403	-0.26809818695139975	1.5960055472179835	-0.5580523006059344	-0.2397010099520687	1.566300944079966	-0.6115750678099795	-0.24158863104355086	1.5790084852731516	-0.6326457594235463	-0.27917506443241435	1.586014352458781	-0.537542160027211	-0.2777528475474794	2.037474499127524	-0.4252825284421679	-0.2574247683437238	2.091036273476257	-0.44248558187417086	-0.2905588193490505	2.0368426456283704	-0.3483690377745138	-0.26710022998907257	2.036241238699747	-0.2806235279389326	-0.2663756894411731	2.0893668658777385	-0.3416515985281942	-0.2640100867215162	2.0414039943104667	-0.5055124841311076	-0.2220136858378222	2.032152541640133	-0.5865930298014009	-0.2354563149154239	2.087004457759071	-0.5563706023866033
